<?xml version="1.0" encoding="iso-8859-1"?>
<!-- Generator: Adobe Illustrator 19.0.0, SVG Export Plug-In . SVG Version: 6.00 Build 0)  -->
<svg version="1.1" id="Capa_1" xmlns="http://www.w3.org/2000/svg" xmlns:xlink="http://www.w3.org/1999/xlink" x="0px" y="0px"
	 viewBox="0 0 512 512" style="enable-background:new 0 0 512 512;" xml:space="preserve">
<rect x="201.43" y="201.44" style="fill:#B48764;" width="117.51" height="100.72"/>
<path style="fill:#966D50;" d="M201.432,232.785c16.645,11.987,36.973,19.018,58.754,19.018s42.109-7.03,58.754-19.018v-31.343
	H201.432V232.785z"/>
<path style="fill:#5D5360;" d="M429.803,503.607l6.615-165.153c0.863-21.541-12.082-41.243-32.197-49.002l-76.407-26.214
	c-3.108-1.066-6.655,0.146-8.187,3.052c-11.248,21.331-33.639,35.874-59.43,35.874s-48.182-14.543-59.43-35.874
	c-1.532-2.906-5.079-4.118-8.187-3.052l-76.407,26.214c-20.115,7.758-33.06,27.46-32.197,49.002l6.615,165.153H429.803z"/>
<g>
	<path style="fill:#6F6571;" d="M159.475,377.615l-67.954-67.592c-5.152,8.342-7.958,18.154-7.547,28.43l6.615,165.153h68.886
		V377.615z"/>
	<path style="fill:#6F6571;" d="M360.918,377.615l67.954-67.592c5.152,8.342,7.958,18.154,7.547,28.43l-6.615,165.153h-68.886
		L360.918,377.615L360.918,377.615z"/>
</g>
<path style="fill:#C39772;" d="M352.525,117.509V92.328C352.525,41.337,311.188,0,260.197,0s-92.328,41.337-92.328,92.328v25.18
	h-0.295c-0.005,0-0.008,0.003-0.013,0.003c-0.92,0.017-1.859,0.114-2.816,0.299c-8.169,1.578-13.673,9.388-13.673,17.708v6.082
	c0,8.028,5.14,15.602,12.958,17.427c1.761,0.411,3.475,0.528,5.116,0.397c4.173-0.333,7.817,2.704,8.568,6.822
	c7.136,39.108,41.303,68.77,82.473,68.77s75.337-29.662,82.473-68.77c0.724-3.966,4.148-6.855,8.126-6.771h1.729
	c9.271,0,16.787-7.516,16.787-16.787v-8.393C369.301,125.027,361.791,117.515,352.525,117.509z"/>
<path style="fill:#B48764;" d="M209.836,151.082V83.934c0-37.174,22.018-69.131,53.68-83.767C262.405,0.128,261.317,0,260.197,0
	c-50.991,0-92.328,41.337-92.328,92.328v25.18h-0.295c-0.005,0-0.008,0.003-0.013,0.003c-0.92,0.017-1.859,0.114-2.816,0.299
	c-8.169,1.578-13.673,9.388-13.673,17.708v6.082c0,8.028,5.14,15.602,12.958,17.427c1.761,0.411,3.475,0.528,5.116,0.397
	c4.173-0.333,7.817,2.704,8.568,6.822c7.136,39.108,41.303,68.77,82.473,68.77c1.134,0,2.241-0.107,3.364-0.151
	C231.869,220.237,209.836,188.269,209.836,151.082z"/>
<path style="fill:#C39772;" d="M440.656,512H71.344c-4.639,0-8.393-3.758-8.393-8.393s3.754-8.393,8.393-8.393h369.311
	c4.639,0,8.393,3.758,8.393,8.393C449.049,508.242,445.296,512,440.656,512z"/>
<path style="fill:#DBD9DC;" d="M349.286,495.213H162.714c-8.888,0-16.236-6.928-16.758-15.801l-6.419-109.115
	c-0.567-9.642,7.099-17.773,16.758-17.773h199.41c9.659,0,17.325,8.131,16.758,17.773l-6.419,109.115
	C365.522,488.285,358.175,495.213,349.286,495.213z"/>
<circle style="fill:#FFFFFF;" cx="256" cy="428.07" r="20.984"/>
<path style="fill:#6F6571;" d="M174.563,269.419c13.649,33.938,46.814,57.926,85.634,57.926s71.986-23.988,85.634-57.926
	l-18.017-6.181c-3.108-1.066-6.655,0.146-8.188,3.052c-11.247,21.331-33.639,35.874-59.43,35.874s-48.182-14.544-59.43-35.874
	c-1.533-2.906-5.079-4.118-8.188-3.052L174.563,269.419z"/>
<path style="fill:#B48764;" d="M260.197,0c-50.991,0-92.328,41.337-92.328,92.328v25.18h11.104c3.432,0,6.519-2.09,7.794-5.276
	l10.455-26.139c2.549-6.373,8.722-10.552,15.586-10.552h94.778c6.864,0,13.037,4.179,15.586,10.552l10.455,26.139
	c1.275,3.186,4.361,5.276,7.794,5.276h11.104v-25.18C352.525,41.337,311.188,0,260.197,0z"/>
<path style="fill:#966D50;" d="M167.869,92.328v25.18h11.104c3.432,0,6.519-2.09,7.794-5.276l10.455-26.139
	c2.217-5.542,7.223-9.241,12.991-10.159c2.905-33.713,23.94-62.194,53.303-75.766C262.405,0.128,261.317,0,260.197,0
	C209.205,0,167.869,41.337,167.869,92.328z"/>
<g>
</g>
<g>
</g>
<g>
</g>
<g>
</g>
<g>
</g>
<g>
</g>
<g>
</g>
<g>
</g>
<g>
</g>
<g>
</g>
<g>
</g>
<g>
</g>
<g>
</g>
<g>
</g>
<g>
</g>
</svg>
